C:\OpenCap\opencap-processing\Data\4c262e12-931b-45fd-97cc-86b3655bb656\OpenSimData\Dynamics\jump2\GRF_jump2_jump_analysis.mot
version=1
nRows=4
nColumns=109
inDegrees=yes
endheader 
time	ground_force_SmoothSphereHalfSpaceForce_s1_r_vx	ground_force_SmoothSphereHalfSpaceForce_s1_r_vy	ground_force_SmoothSphereHalfSpaceForce_s1_r_vz	ground_force_SmoothSphereHalfSpaceForce_s1_r_px	ground_force_SmoothSphereHalfSpaceForce_s1_r_py	ground_force_SmoothSphereHalfSpaceForce_s1_r_pz	ground_torque_SmoothSphereHalfSpaceForce_s1_r_x	ground_torque_SmoothSphereHalfSpaceForce_s1_r_y	ground_torque_SmoothSphereHalfSpaceForce_s1_r_z	ground_force_SmoothSphereHalfSpaceForce_s2_r_vx	ground_force_SmoothSphereHalfSpaceForce_s2_r_vy	ground_force_SmoothSphereHalfSpaceForce_s2_r_vz	ground_force_SmoothSphereHalfSpaceForce_s2_r_px	ground_force_SmoothSphereHalfSpaceForce_s2_r_py	ground_force_SmoothSphereHalfSpaceForce_s2_r_pz	ground_torque_SmoothSphereHalfSpaceForce_s2_r_x	ground_torque_SmoothSphereHalfSpaceForce_s2_r_y	ground_torque_SmoothSphereHalfSpaceForce_s2_r_z	ground_force_SmoothSphereHalfSpaceForce_s3_r_vx	ground_force_SmoothSphereHalfSpaceForce_s3_r_vy	ground_force_SmoothSphereHalfSpaceForce_s3_r_vz	ground_force_SmoothSphereHalfSpaceForce_s3_r_px	ground_force_SmoothSphereHalfSpaceForce_s3_r_py	ground_force_SmoothSphereHalfSpaceForce_s3_r_pz	ground_torque_SmoothSphereHalfSpaceForce_s3_r_x	ground_torque_SmoothSphereHalfSpaceForce_s3_r_y	ground_torque_SmoothSphereHalfSpaceForce_s3_r_z	ground_force_SmoothSphereHalfSpaceForce_s4_r_vx	ground_force_SmoothSphereHalfSpaceForce_s4_r_vy	ground_force_SmoothSphereHalfSpaceForce_s4_r_vz	ground_force_SmoothSphereHalfSpaceForce_s4_r_px	ground_force_SmoothSphereHalfSpaceForce_s4_r_py	ground_force_SmoothSphereHalfSpaceForce_s4_r_pz	ground_torque_SmoothSphereHalfSpaceForce_s4_r_x	ground_torque_SmoothSphereHalfSpaceForce_s4_r_y	ground_torque_SmoothSphereHalfSpaceForce_s4_r_z	ground_force_SmoothSphereHalfSpaceForce_s5_r_vx	ground_force_SmoothSphereHalfSpaceForce_s5_r_vy	ground_force_SmoothSphereHalfSpaceForce_s5_r_vz	ground_force_SmoothSphereHalfSpaceForce_s5_r_px	ground_force_SmoothSphereHalfSpaceForce_s5_r_py	ground_force_SmoothSphereHalfSpaceForce_s5_r_pz	ground_torque_SmoothSphereHalfSpaceForce_s5_r_x	ground_torque_SmoothSphereHalfSpaceForce_s5_r_y	ground_torque_SmoothSphereHalfSpaceForce_s5_r_z	ground_force_SmoothSphereHalfSpaceForce_s6_r_vx	ground_force_SmoothSphereHalfSpaceForce_s6_r_vy	ground_force_SmoothSphereHalfSpaceForce_s6_r_vz	ground_force_SmoothSphereHalfSpaceForce_s6_r_px	ground_force_SmoothSphereHalfSpaceForce_s6_r_py	ground_force_SmoothSphereHalfSpaceForce_s6_r_pz	ground_torque_SmoothSphereHalfSpaceForce_s6_r_x	ground_torque_SmoothSphereHalfSpaceForce_s6_r_y	ground_torque_SmoothSphereHalfSpaceForce_s6_r_z	ground_force_SmoothSphereHalfSpaceForce_s1_l_vx	ground_force_SmoothSphereHalfSpaceForce_s1_l_vy	ground_force_SmoothSphereHalfSpaceForce_s1_l_vz	ground_force_SmoothSphereHalfSpaceForce_s1_l_px	ground_force_SmoothSphereHalfSpaceForce_s1_l_py	ground_force_SmoothSphereHalfSpaceForce_s1_l_pz	ground_torque_SmoothSphereHalfSpaceForce_s1_l_x	ground_torque_SmoothSphereHalfSpaceForce_s1_l_y	ground_torque_SmoothSphereHalfSpaceForce_s1_l_z	ground_force_SmoothSphereHalfSpaceForce_s2_l_vx	ground_force_SmoothSphereHalfSpaceForce_s2_l_vy	ground_force_SmoothSphereHalfSpaceForce_s2_l_vz	ground_force_SmoothSphereHalfSpaceForce_s2_l_px	ground_force_SmoothSphereHalfSpaceForce_s2_l_py	ground_force_SmoothSphereHalfSpaceForce_s2_l_pz	ground_torque_SmoothSphereHalfSpaceForce_s2_l_x	ground_torque_SmoothSphereHalfSpaceForce_s2_l_y	ground_torque_SmoothSphereHalfSpaceForce_s2_l_z	ground_force_SmoothSphereHalfSpaceForce_s3_l_vx	ground_force_SmoothSphereHalfSpaceForce_s3_l_vy	ground_force_SmoothSphereHalfSpaceForce_s3_l_vz	ground_force_SmoothSphereHalfSpaceForce_s3_l_px	ground_force_SmoothSphereHalfSpaceForce_s3_l_py	ground_force_SmoothSphereHalfSpaceForce_s3_l_pz	ground_torque_SmoothSphereHalfSpaceForce_s3_l_x	ground_torque_SmoothSphereHalfSpaceForce_s3_l_y	ground_torque_SmoothSphereHalfSpaceForce_s3_l_z	ground_force_SmoothSphereHalfSpaceForce_s4_l_vx	ground_force_SmoothSphereHalfSpaceForce_s4_l_vy	ground_force_SmoothSphereHalfSpaceForce_s4_l_vz	ground_force_SmoothSphereHalfSpaceForce_s4_l_px	ground_force_SmoothSphereHalfSpaceForce_s4_l_py	ground_force_SmoothSphereHalfSpaceForce_s4_l_pz	ground_torque_SmoothSphereHalfSpaceForce_s4_l_x	ground_torque_SmoothSphereHalfSpaceForce_s4_l_y	ground_torque_SmoothSphereHalfSpaceForce_s4_l_z	ground_force_SmoothSphereHalfSpaceForce_s5_l_vx	ground_force_SmoothSphereHalfSpaceForce_s5_l_vy	ground_force_SmoothSphereHalfSpaceForce_s5_l_vz	ground_force_SmoothSphereHalfSpaceForce_s5_l_px	ground_force_SmoothSphereHalfSpaceForce_s5_l_py	ground_force_SmoothSphereHalfSpaceForce_s5_l_pz	ground_torque_SmoothSphereHalfSpaceForce_s5_l_x	ground_torque_SmoothSphereHalfSpaceForce_s5_l_y	ground_torque_SmoothSphereHalfSpaceForce_s5_l_z	ground_force_SmoothSphereHalfSpaceForce_s6_l_vx	ground_force_SmoothSphereHalfSpaceForce_s6_l_vy	ground_force_SmoothSphereHalfSpaceForce_s6_l_vz	ground_force_SmoothSphereHalfSpaceForce_s6_l_px	ground_force_SmoothSphereHalfSpaceForce_s6_l_py	ground_force_SmoothSphereHalfSpaceForce_s6_l_pz	ground_torque_SmoothSphereHalfSpaceForce_s6_l_x	ground_torque_SmoothSphereHalfSpaceForce_s6_l_y	ground_torque_SmoothSphereHalfSpaceForce_s6_l_z	
          6.25236842	          0.00000000	         -0.00000000	          0.00000000	         -5.91625178	          0.19015277	          0.25642820	          0.00000000	          0.00000000	          0.00000000	          0.00000000	         -0.00000000	          0.00000000	         -5.72681595	          0.18077649	          0.24760514	          0.00000000	          0.00000000	          0.00000000	          0.00000000	         -0.00000000	          0.00000000	         -5.76313502	          0.16239650	          0.33892175	          0.00000000	          0.00000000	          0.00000000	          0.00000000	         -0.00000000	          0.00000000	         -5.84174246	          0.17579138	          0.30036743	          0.00000000	          0.00000000	          0.00000000	          0.00000000	         -0.00000000	          0.00000000	         -5.63522409	          0.16873846	          0.26931712	          0.00000000	          0.00000000	          0.00000000	          0.00000000	         -0.00000000	          0.00000000	         -5.67118359	          0.14997902	          0.36074985	          0.00000000	          0.00000000	          0.00000000	          0.00000000	         -0.00000000	         -0.00000000	         -6.52447765	          0.38080331	          0.16698121	          0.00000000	          0.00000000	          0.00000000	          0.00000000	         -0.00000000	         -0.00000000	         -6.42723057	          0.30295997	          0.11579422	          0.00000000	          0.00000000	          0.00000000	          0.00000000	         -0.00000000	         -0.00000000	         -6.45235859	          0.33146132	          0.03136453	          0.00000000	          0.00000000	          0.00000000	          0.00000000	         -0.00000000	         -0.00000000	         -6.48965788	          0.35736773	          0.09699570	          0.00000000	          0.00000000	          0.00000000	          0.00000000	         -0.00000000	         -0.00000000	         -6.38481694	          0.26849870	          0.06210099	          0.00000000	          0.00000000	          0.00000000	          0.00000000	         -0.00000000	         -0.00000000	         -6.41046532	          0.29667406	         -0.02291344	          0.00000000	          0.00000000	          0.00000000	
          6.27263158	          0.00000000	         -0.00000000	          0.00000000	         -5.87406264	          0.19857907	          0.26328597	          0.00000000	          0.00000000	          0.00000000	          0.00000000	         -0.00000000	          0.00000000	         -5.68379376	          0.19426215	          0.25706932	          0.00000000	          0.00000000	          0.00000000	          0.00000000	         -0.00000000	          0.00000000	         -5.71914898	          0.17664266	          0.34935864	          0.00000000	          0.00000000	          0.00000000	          0.00000000	         -0.00000000	          0.00000000	         -5.79863133	          0.18712303	          0.30902924	          0.00000000	          0.00000000	          0.00000000	          0.00000000	         -0.00000000	          0.00000000	         -5.59124517	          0.18527365	          0.28071153	          0.00000000	          0.00000000	          0.00000000	          0.00000000	         -0.00000000	          0.00000000	         -5.62618844	          0.16738375	          0.37322893	          0.00000000	          0.00000000	          0.00000000	          0.00000000	         -0.00000000	         -0.00000000	         -6.40357967	          0.43081620	          0.19501881	          0.00000000	          0.00000000	          0.00000000	          0.00000000	         -0.00000000	         -0.00000000	         -6.32022900	          0.34957627	          0.14053578	          0.00000000	          0.00000000	          0.00000000	          0.00000000	         -0.00000000	         -0.00000000	         -6.32790030	          0.38271569	          0.05955824	          0.00000000	          0.00000000	          0.00000000	          0.00000000	         -0.00000000	         -0.00000000	         -6.36640079	          0.40815363	          0.12522872	          0.00000000	          0.00000000	          0.00000000	          0.00000000	         -0.00000000	         -0.00000000	         -6.28020074	          0.31487737	          0.08563979	          0.00000000	          0.00000000	          0.00000000	          0.00000000	         -0.00000000	         -0.00000000	         -6.28839998	          0.34774990	          0.00396326	          0.00000000	          0.00000000	          0.00000000	
          6.29289474	          0.00000000	         -0.00000000	          0.00000000	         -5.82585156	          0.20453830	          0.26416638	          0.00000000	          0.00000000	          0.00000000	          0.00000000	         -0.00000000	          0.00000000	         -5.63534180	          0.20316058	          0.26044101	          0.00000000	          0.00000000	          0.00000000	          0.00000000	         -0.00000000	          0.00000000	         -5.67071809	          0.18678700	          0.35363562	          0.00000000	          0.00000000	          0.00000000	          0.00000000	         -0.00000000	          0.00000000	         -5.75031221	          0.19519545	          0.31162105	          0.00000000	          0.00000000	          0.00000000	          0.00000000	         -0.00000000	          0.00000000	         -5.54254490	          0.19620366	          0.28589420	          0.00000000	          0.00000000	          0.00000000	          0.00000000	         -0.00000000	          0.00000000	         -5.57749128	          0.17964423	          0.37939599	          0.00000000	          0.00000000	          0.00000000	          0.00000000	         -0.00000000	         -0.00000000	         -6.24434624	          0.48790060	          0.21113140	          0.00000000	          0.00000000	          0.00000000	          0.00000000	         -0.00000000	         -0.00000000	         -6.17389142	          0.40396939	          0.15479519	          0.00000000	          0.00000000	          0.00000000	          0.00000000	         -0.00000000	         -0.00000000	         -6.16052793	          0.44016117	          0.08002132	          0.00000000	          0.00000000	          0.00000000	          0.00000000	         -0.00000000	         -0.00000000	         -6.20242053	          0.46552117	          0.14370607	          0.00000000	          0.00000000	          0.00000000	          0.00000000	         -0.00000000	         -0.00000000	         -6.13428715	          0.36898007	          0.10027791	          0.00000000	          0.00000000	          0.00000000	          0.00000000	         -0.00000000	         -0.00000000	         -6.12124902	          0.40498818	          0.02475065	          0.00000000	          0.00000000	          0.00000000	
          6.31315789	         -0.00000000	         -0.00000000	         -0.00000000	         -5.77628397	          0.20758006	          0.26395304	          0.00000000	          0.00000000	          0.00000000	         -0.00000000	         -0.00000000	         -0.00000000	         -5.58572484	          0.20744518	          0.26234538	          0.00000000	          0.00000000	          0.00000000	          0.00000000	         -0.00000000	          0.00000000	         -5.62168806	          0.19277200	          0.35644391	          0.00000000	          0.00000000	          0.00000000	         -0.00000000	         -0.00000000	         -0.00000000	         -5.70103068	          0.19975156	          0.31293358	          0.00000000	          0.00000000	          0.00000000	         -0.00000000	         -0.00000000	         -0.00000000	         -5.49302763	          0.20169242	          0.28935479	          0.00000000	          0.00000000	          0.00000000	          0.00000000	         -0.00000000	          0.00000000	         -5.52855900	          0.18686989	          0.38379729	          0.00000000	          0.00000000	          0.00000000	          0.00000000	         -0.00000000	         -0.00000000	         -6.04527615	          0.53962087	          0.22606348	          0.00000000	          0.00000000	          0.00000000	          0.00000000	         -0.00000000	         -0.00000000	         -5.99550276	          0.45319985	          0.16310573	          0.00000000	          0.00000000	          0.00000000	          0.00000000	         -0.00000000	         -0.00000000	         -5.96246825	          0.49029525	          0.09667123	          0.00000000	          0.00000000	          0.00000000	          0.00000000	         -0.00000000	         -0.00000000	         -6.00317684	          0.51648764	          0.15977355	          0.00000000	          0.00000000	          0.00000000	          0.00000000	         -0.00000000	         -0.00000000	         -5.96079562	          0.41740093	          0.10728160	          0.00000000	          0.00000000	          0.00000000	          0.00000000	         -0.00000000	         -0.00000000	         -5.92781093	          0.45437635	          0.04016991	          0.00000000	          0.00000000	          0.00000000	
